<svg width="201" height="200" viewBox="0 0 201 200" fill="none" xmlns="http://www.w3.org/2000/svg">
<g clip-path="url(#clip0_16_216)">
<path d="M100.5 0C45.2719 0 0.5 44.7719 0.5 100C0.5 155.231 45.2719 200 100.5 200C155.731 200 200.5 155.231 200.5 100C200.5 44.7719 155.731 0 100.5 0ZM100.5 187.697C52.2531 187.697 13 148.247 13 99.9996C13 51.7527 52.2531 12.4996 100.5 12.4996C148.747 12.4996 188 51.7529 188 99.9996C188 148.246 148.747 187.697 100.5 187.697ZM140.409 63.4094L81.7373 122.45L55.3154 96.0281C52.8748 93.5875 48.9186 93.5875 46.4748 96.0281C44.0342 98.4688 44.0342 102.425 46.4748 104.866L77.4092 135.803C79.8498 138.241 83.8061 138.241 86.2498 135.803C86.5311 135.522 86.7719 135.215 86.9906 134.897L149.253 72.2498C151.691 69.8092 151.691 65.8529 149.253 63.4094C146.809 60.9688 142.853 60.9688 140.409 63.4094Z" fill="black"/>
</g>
<defs>
<clipPath id="clip0_16_216">
<rect width="200" height="200" fill="white" transform="translate(0.5)"/>
</clipPath>
</defs>
</svg>
